<?xml version="1.0" encoding="UTF-8" standalone="no"?>
<!-- Created with Inkscape (http://www.inkscape.org/) -->

<svg
   xmlns:dc="http://purl.org/dc/elements/1.1/"
   xmlns:cc="http://creativecommons.org/ns#"
   xmlns:rdf="http://www.w3.org/1999/02/22-rdf-syntax-ns#"
   xmlns:svg="http://www.w3.org/2000/svg"
   xmlns="http://www.w3.org/2000/svg"
   xmlns:sodipodi="http://sodipodi.sourceforge.net/DTD/sodipodi-0.dtd"
   xmlns:inkscape="http://www.inkscape.org/namespaces/inkscape"
   version="1.1"
   id="svg29"
   xml:space="preserve"
   width="526.66669"
   height="484"
   viewBox="0 0 526.66669 484"
   sodipodi:docname="simple_model.svg"
   inkscape:version="0.92.4 (33fec40, 2019-01-16)"><metadata
     id="metadata35"><rdf:RDF><cc:Work
         rdf:about=""><dc:format>image/svg+xml</dc:format><dc:type
           rdf:resource="http://purl.org/dc/dcmitype/StillImage" /><dc:title></dc:title></cc:Work></rdf:RDF></metadata><defs
     id="defs33"><clipPath
       clipPathUnits="userSpaceOnUse"
       id="clipPath47"><path
         d="M 0,362.199 H 395 V 0 H 0 Z"
         id="path45"
         inkscape:connector-curvature="0" /></clipPath><clipPath
       clipPathUnits="userSpaceOnUse"
       id="clipPath57"><path
         d="M 0,0 H 395 V 363 H 0 Z"
         id="path55"
         inkscape:connector-curvature="0" /></clipPath></defs><sodipodi:namedview
     pagecolor="#ffffff"
     bordercolor="#666666"
     borderopacity="1"
     objecttolerance="10"
     gridtolerance="10"
     guidetolerance="10"
     inkscape:pageopacity="0"
     inkscape:pageshadow="2"
     inkscape:window-width="1857"
     inkscape:window-height="1145"
     id="namedview31"
     showgrid="false"
     inkscape:zoom="1.9152893"
     inkscape:cx="263.33334"
     inkscape:cy="242"
     inkscape:window-x="63"
     inkscape:window-y="27"
     inkscape:window-maximized="1"
     inkscape:current-layer="g37" /><g
     id="g37"
     inkscape:groupmode="layer"
     inkscape:label="simple_model"
     transform="matrix(1.3333333,0,0,-1.3333333,0,484)"><g
       id="g39" /><g
       id="g41"><g
         id="g43"
         clip-path="url(#clipPath47)"><g
           id="g49"><g
             id="g51"><g
               id="g53"
               clip-path="url(#clipPath57)"><g
                 id="g59"><g
                   id="g61"
                   transform="translate(0,363)"><path
                     d="M 21.492,-5.195 V -343.117 H 390.133"
                     style="fill:none;stroke:#000000;stroke-width:2.4000001;stroke-linecap:butt;stroke-linejoin:miter;stroke-miterlimit:4;stroke-dasharray:none;stroke-opacity:1"
                     id="path63"
                     inkscape:connector-curvature="0" /></g><g
                   id="g65"
                   transform="translate(0,363)"><path
                     d="m 21.492,-29.195 9.598,-9.602 -9.598,33.602 -9.601,-33.602 z"
                     style="fill:#000000;fill-opacity:1;fill-rule:evenodd;stroke:#000000;stroke-width:2.4000001;stroke-linecap:butt;stroke-linejoin:miter;stroke-miterlimit:4;stroke-dasharray:none;stroke-opacity:1"
                     id="path67"
                     inkscape:connector-curvature="0" /></g><g
                   id="g69"
                   transform="translate(0,363)"><path
                     d="m 366.133,-343.117 -9.602,-9.598 33.602,9.598 -33.602,9.601 z"
                     style="fill:#000000;fill-opacity:1;fill-rule:evenodd;stroke:#000000;stroke-width:2.4000001;stroke-linecap:butt;stroke-linejoin:miter;stroke-miterlimit:4;stroke-dasharray:none;stroke-opacity:1"
                     id="path71"
                     inkscape:connector-curvature="0" /></g><g
                   id="g73"
                   transform="translate(0,363)"><path
                     d="m 21.492,-158.797 317.438,81.922 v -51.203 L 21.492,-230.477 Z"
                     style="fill:#ffe680;fill-opacity:1;fill-rule:nonzero;stroke:#000000;stroke-width:1.60000002;stroke-linecap:butt;stroke-linejoin:miter;stroke-miterlimit:4;stroke-dasharray:none;stroke-opacity:1"
                     id="path75"
                     inkscape:connector-curvature="0" /></g><g
                   id="g77"
                   transform="translate(0,363)"><path
                     d="m 338.93,-343.117 v 215.039 L 21.492,-230.477 v -112.64 z"
                     style="fill:none;stroke:#000000;stroke-width:0.80000001;stroke-linecap:butt;stroke-linejoin:miter;stroke-miterlimit:4;stroke-dasharray:none;stroke-opacity:1"
                     id="path79"
                     inkscape:connector-curvature="0" /></g><path
                   d="m 42.934,85.719 v -3.735 h 2.218 c 0.739,0 1.286,0.149 1.641,0.454 0.363,0.312 0.547,0.785 0.547,1.421 0,0.633 -0.184,1.102 -0.547,1.407 -0.355,0.3 -0.902,0.453 -1.641,0.453 z m 0,4.203 v -3.078 h 2.046 c 0.676,0 1.176,0.125 1.5,0.375 0.332,0.25 0.5,0.633 0.5,1.156 0,0.52 -0.168,0.906 -0.5,1.156 -0.324,0.258 -0.824,0.391 -1.5,0.391 z m -1.375,1.125 h 3.531 c 1.051,0 1.859,-0.219 2.422,-0.656 0.57,-0.438 0.859,-1.059 0.859,-1.86 0,-0.625 -0.148,-1.125 -0.437,-1.5 -0.293,-0.367 -0.719,-0.593 -1.282,-0.687 0.676,-0.149 1.203,-0.453 1.578,-0.922 0.375,-0.461 0.563,-1.031 0.563,-1.719 0,-0.918 -0.313,-1.625 -0.938,-2.125 -0.617,-0.492 -1.496,-0.734 -2.64,-0.734 H 41.559 Z M 57.887,84.984 V 84.375 H 52.09 c 0.062,-0.867 0.32,-1.527 0.781,-1.984 0.469,-0.45 1.117,-0.672 1.953,-0.672 0.488,0 0.957,0.054 1.406,0.172 0.458,0.113 0.911,0.289 1.36,0.531 v -1.188 c -0.461,-0.187 -0.93,-0.336 -1.406,-0.437 -0.469,-0.102 -0.946,-0.156 -1.422,-0.156 -1.231,0 -2.203,0.351 -2.922,1.062 -0.711,0.719 -1.063,1.68 -1.063,2.891 0,1.258 0.336,2.254 1.016,2.984 0.676,0.738 1.594,1.11 2.75,1.11 1.031,0 1.844,-0.336 2.437,-1 0.602,-0.657 0.907,-1.559 0.907,-2.704 z m -1.266,0.375 c -0.012,0.688 -0.203,1.235 -0.578,1.641 -0.375,0.414 -0.871,0.625 -1.484,0.625 -0.711,0 -1.278,-0.203 -1.704,-0.609 -0.417,-0.399 -0.656,-0.954 -0.718,-1.672 z m 8.57,1.985 v 4.14 h 1.25 v -10.64 h -1.25 V 82 c -0.261,-0.461 -0.593,-0.805 -1,-1.031 -0.406,-0.219 -0.89,-0.328 -1.453,-0.328 -0.929,0 -1.683,0.367 -2.265,1.109 -0.586,0.738 -0.875,1.711 -0.875,2.922 0,1.195 0.289,2.164 0.875,2.906 0.582,0.738 1.336,1.11 2.265,1.11 0.563,0 1.047,-0.118 1.453,-0.344 0.407,-0.219 0.739,-0.555 1,-1 z M 60.91,84.672 c 0,-0.93 0.188,-1.656 0.563,-2.188 0.382,-0.523 0.91,-0.781 1.578,-0.781 0.656,0 1.176,0.258 1.562,0.781 0.383,0.532 0.578,1.258 0.578,2.188 0,0.914 -0.195,1.633 -0.578,2.156 -0.386,0.531 -0.906,0.797 -1.562,0.797 -0.668,0 -1.196,-0.266 -1.578,-0.797 -0.375,-0.523 -0.563,-1.242 -0.563,-2.156 z m 12.77,2.656 c -0.137,0.082 -0.289,0.141 -0.453,0.172 -0.168,0.039 -0.352,0.062 -0.547,0.062 -0.719,0 -1.274,-0.234 -1.657,-0.703 -0.375,-0.461 -0.562,-1.121 -0.562,-1.984 V 80.844 H 69.195 V 88.5 h 1.266 v -1.188 c 0.269,0.469 0.613,0.813 1.031,1.032 0.426,0.226 0.942,0.344 1.547,0.344 0.094,0 0.191,-0.008 0.297,-0.016 0.102,-0.012 0.219,-0.031 0.344,-0.063 z m 4.132,0.297 c -0.667,0 -1.199,-0.266 -1.593,-0.797 -0.399,-0.523 -0.594,-1.242 -0.594,-2.156 0,-0.918 0.191,-1.641 0.578,-2.172 0.395,-0.523 0.93,-0.781 1.609,-0.781 0.676,0 1.208,0.258 1.594,0.781 0.395,0.531 0.594,1.254 0.594,2.172 0,0.906 -0.199,1.625 -0.594,2.156 -0.386,0.531 -0.918,0.797 -1.594,0.797 z m 0,1.063 c 1.094,0 1.954,-0.36 2.579,-1.079 0.625,-0.711 0.937,-1.687 0.937,-2.937 0,-1.262 -0.312,-2.25 -0.937,-2.969 -0.625,-0.711 -1.485,-1.062 -2.579,-1.062 -1.093,0 -1.953,0.351 -2.578,1.062 -0.625,0.719 -0.937,1.707 -0.937,2.969 0,1.25 0.312,2.226 0.937,2.937 0.625,0.719 1.485,1.079 2.578,1.079 z m 11.309,-0.485 v -1.172 c -0.355,0.196 -0.715,0.344 -1.078,0.438 -0.355,0.101 -0.715,0.156 -1.078,0.156 -0.813,0 -1.449,-0.262 -1.906,-0.781 -0.45,-0.524 -0.672,-1.246 -0.672,-2.172 0,-0.938 0.222,-1.668 0.672,-2.188 0.457,-0.511 1.093,-0.765 1.906,-0.765 0.363,0 0.723,0.047 1.078,0.14 0.363,0.094 0.723,0.239 1.078,0.438 v -1.156 c -0.355,-0.168 -0.719,-0.293 -1.094,-0.375 -0.375,-0.082 -0.773,-0.125 -1.187,-0.125 -1.156,0 -2.078,0.359 -2.766,1.078 -0.679,0.726 -1.015,1.711 -1.015,2.953 0,1.238 0.343,2.219 1.031,2.937 0.687,0.719 1.629,1.079 2.828,1.079 0.383,0 0.758,-0.043 1.125,-0.126 0.375,-0.074 0.734,-0.195 1.078,-0.359 z m 2.336,3.281 h 1.266 v -6.281 l 3.765,3.297 h 1.594 l -4.062,-3.578 4.234,-4.078 h -1.641 l -3.89,3.734 v -3.734 h -1.266 z"
                   style="fill:#000000;fill-opacity:1;fill-rule:nonzero;stroke:none"
                   id="path81"
                   inkscape:connector-curvature="0" /><path
                   d="m 48.191,168.023 c 0.289,-0.093 0.579,-0.308 0.86,-0.64 0.281,-0.324 0.562,-0.774 0.844,-1.344 l 1.406,-2.797 h -1.485 l -1.312,2.625 c -0.336,0.676 -0.664,1.125 -0.984,1.344 -0.313,0.227 -0.743,0.344 -1.282,0.344 h -1.515 v -4.313 h -1.375 v 10.203 h 3.109 c 1.164,0 2.035,-0.246 2.609,-0.734 0.582,-0.481 0.875,-1.215 0.875,-2.203 0,-0.649 -0.152,-1.184 -0.453,-1.61 -0.304,-0.418 -0.734,-0.71 -1.297,-0.875 z m -3.468,4.297 v -3.625 h 1.734 c 0.664,0 1.172,0.149 1.516,0.453 0.343,0.313 0.515,0.766 0.515,1.36 0,0.594 -0.172,1.039 -0.515,1.344 -0.344,0.312 -0.852,0.468 -1.516,0.468 z m 14.449,-4.937 v -0.61 h -5.797 c 0.063,-0.867 0.32,-1.527 0.781,-1.984 0.469,-0.449 1.117,-0.672 1.953,-0.672 0.489,0 0.957,0.055 1.407,0.172 0.457,0.113 0.91,0.289 1.359,0.531 v -1.187 c -0.461,-0.188 -0.93,-0.336 -1.406,-0.438 -0.469,-0.101 -0.946,-0.156 -1.422,-0.156 -1.231,0 -2.203,0.352 -2.922,1.063 -0.711,0.718 -1.063,1.679 -1.063,2.89 0,1.258 0.336,2.254 1.016,2.985 0.676,0.738 1.594,1.109 2.75,1.109 1.031,0 1.844,-0.336 2.438,-1 0.601,-0.656 0.906,-1.559 0.906,-2.703 z m -1.266,0.375 c -0.011,0.687 -0.203,1.234 -0.578,1.64 -0.375,0.414 -0.871,0.625 -1.484,0.625 -0.711,0 -1.278,-0.203 -1.703,-0.609 -0.418,-0.398 -0.657,-0.953 -0.719,-1.672 z m 8.571,-0.594 c 0,0.906 -0.188,1.609 -0.563,2.109 -0.375,0.5 -0.902,0.75 -1.578,0.75 -0.68,0 -1.203,-0.25 -1.578,-0.75 -0.375,-0.5 -0.563,-1.203 -0.563,-2.109 0,-0.906 0.188,-1.617 0.563,-2.125 0.375,-0.5 0.898,-0.75 1.578,-0.75 0.676,0 1.203,0.25 1.578,0.75 0.375,0.508 0.563,1.219 0.563,2.125 z m 1.25,-2.969 c 0,-1.3 -0.293,-2.269 -0.875,-2.906 -0.575,-0.633 -1.454,-0.953 -2.641,-0.953 -0.449,0 -0.871,0.031 -1.266,0.094 -0.386,0.062 -0.761,0.164 -1.125,0.297 v 1.234 c 0.364,-0.207 0.723,-0.359 1.078,-0.453 0.364,-0.094 0.735,-0.141 1.11,-0.141 0.82,0 1.437,0.219 1.844,0.656 0.414,0.43 0.625,1.075 0.625,1.938 v 0.625 c -0.262,-0.449 -0.594,-0.789 -1,-1.016 -0.407,-0.218 -0.891,-0.328 -1.454,-0.328 -0.937,0 -1.699,0.352 -2.281,1.063 -0.574,0.718 -0.859,1.672 -0.859,2.859 0,1.176 0.285,2.125 0.859,2.844 0.582,0.719 1.344,1.078 2.281,1.078 0.563,0 1.047,-0.117 1.454,-0.344 0.406,-0.219 0.738,-0.554 1,-1 v 1.156 h 1.25 z m 5.769,5.828 c -0.668,0 -1.199,-0.265 -1.594,-0.796 -0.398,-0.524 -0.593,-1.243 -0.593,-2.157 0,-0.918 0.191,-1.64 0.578,-2.172 0.394,-0.523 0.929,-0.781 1.609,-0.781 0.676,0 1.207,0.258 1.594,0.781 0.394,0.532 0.594,1.254 0.594,2.172 0,0.907 -0.2,1.625 -0.594,2.157 -0.387,0.531 -0.918,0.796 -1.594,0.796 z m 0,1.063 c 1.094,0 1.953,-0.359 2.578,-1.078 0.625,-0.711 0.938,-1.688 0.938,-2.938 0,-1.261 -0.313,-2.25 -0.938,-2.968 -0.625,-0.711 -1.484,-1.063 -2.578,-1.063 -1.094,0 -1.953,0.352 -2.578,1.063 -0.625,0.718 -0.938,1.707 -0.938,2.968 0,1.25 0.313,2.227 0.938,2.938 0.625,0.719 1.484,1.078 2.578,1.078 z m 5.797,2.797 h 1.266 v -10.641 h -1.266 z m 3.977,-2.985 h 1.265 v -7.656 H 83.27 Z m 0,2.985 h 1.265 v -1.594 H 83.27 Z m 5.222,-0.813 v -2.172 h 2.594 v -0.984 h -2.594 v -4.156 c 0,-0.617 0.082,-1.016 0.25,-1.203 0.176,-0.18 0.524,-0.266 1.047,-0.266 h 1.297 v -1.047 h -1.297 c -0.969,0 -1.641,0.18 -2.016,0.547 -0.367,0.363 -0.546,1.02 -0.546,1.969 v 4.156 h -0.922 v 0.984 h 0.922 v 2.172 z m 10.754,-5.203 v -4.625 H 97.98 v 4.578 c 0,0.727 -0.14,1.27 -0.421,1.625 -0.282,0.364 -0.704,0.547 -1.266,0.547 -0.68,0 -1.215,-0.219 -1.609,-0.656 -0.399,-0.43 -0.594,-1.016 -0.594,-1.766 v -4.328 h -1.266 v 10.641 h 1.266 v -4.172 c 0.301,0.457 0.656,0.801 1.062,1.031 0.414,0.227 0.891,0.344 1.422,0.344 0.875,0 1.535,-0.277 1.985,-0.828 0.457,-0.543 0.687,-1.34 0.687,-2.391 z"
                   style="fill:#000000;fill-opacity:1;fill-rule:nonzero;stroke:none"
                   id="path83"
                   inkscape:connector-curvature="0" /><g
                   id="g85"
                   transform="translate(0,363)"><path
                     d="M 21.492,-250.957 338.93,-148.555"
                     style="fill:none;stroke:#000000;stroke-width:1.60000002;stroke-linecap:butt;stroke-linejoin:miter;stroke-miterlimit:4;stroke-dasharray:9.6, 3.2;stroke-dashoffset:0;stroke-opacity:1"
                     id="path87"
                     inkscape:connector-curvature="0" /></g><g
                   id="g89"
                   transform="translate(0,363)"><path
                     d="M 21.492,-169.035 338.93,-87.117"
                     style="fill:none;stroke:#000000;stroke-width:1.60000002;stroke-linecap:butt;stroke-linejoin:miter;stroke-miterlimit:4;stroke-dasharray:19.2, 1.6;stroke-dashoffset:0;stroke-opacity:1"
                     id="path91"
                     inkscape:connector-curvature="0" /></g><g
                   id="g93"
                   transform="translate(0,363)"><path
                     d="m 154.613,-343.117 v 153.601"
                     style="fill:none;stroke:#000000;stroke-width:0.80000001;stroke-linecap:butt;stroke-linejoin:miter;stroke-miterlimit:4;stroke-dasharray:none;stroke-opacity:1"
                     id="path95"
                     inkscape:connector-curvature="0" /></g><g
                   id="g97"
                   transform="translate(0,363)"><path
                     d="m 154.613,-197.516 3.199,-3.199 -3.199,11.199 -3.203,-11.199 z"
                     style="fill:#000000;fill-opacity:1;fill-rule:evenodd;stroke:#000000;stroke-width:0.80000001;stroke-linecap:butt;stroke-linejoin:miter;stroke-miterlimit:4;stroke-dasharray:none;stroke-opacity:1"
                     id="path99"
                     inkscape:connector-curvature="0" /></g><g
                   id="g101"
                   transform="translate(0,363)"><path
                     d="m 154.613,-179.277 v 51.199"
                     style="fill:none;stroke:#000000;stroke-width:0.80000001;stroke-linecap:butt;stroke-linejoin:miter;stroke-miterlimit:4;stroke-dasharray:none;stroke-opacity:1"
                     id="path103"
                     inkscape:connector-curvature="0" /></g><g
                   id="g105"
                   transform="translate(0,363)"><path
                     d="m 154.613,-171.277 -3.203,3.199 3.203,-11.199 3.199,11.199 z"
                     style="fill:#000000;fill-opacity:1;fill-rule:evenodd;stroke:#000000;stroke-width:0.80000001;stroke-linecap:butt;stroke-linejoin:miter;stroke-miterlimit:4;stroke-dasharray:none;stroke-opacity:1"
                     id="path107"
                     inkscape:connector-curvature="0" /></g><g
                   id="g109"
                   transform="translate(0,363)"><path
                     d="m 154.613,-136.078 3.199,-3.199 -3.199,11.199 -3.203,-11.199 z"
                     style="fill:#000000;fill-opacity:1;fill-rule:evenodd;stroke:#000000;stroke-width:0.80000001;stroke-linecap:butt;stroke-linejoin:miter;stroke-miterlimit:4;stroke-dasharray:none;stroke-opacity:1"
                     id="path111"
                     inkscape:connector-curvature="0" /></g><g
                   id="g113"
                   transform="translate(0,363)"><path
                     d="m 216.051,-343.117 v 235.519"
                     style="fill:none;stroke:#000000;stroke-width:0.80000001;stroke-linecap:butt;stroke-linejoin:miter;stroke-miterlimit:4;stroke-dasharray:none;stroke-opacity:1"
                     id="path115"
                     inkscape:connector-curvature="0" /></g><g
                   id="g117"
                   transform="translate(0,363)"><path
                     d="m 216.051,-115.598 3.199,-3.199 -3.199,11.199 -3.199,-11.199 z"
                     style="fill:#000000;fill-opacity:1;fill-rule:evenodd;stroke:#000000;stroke-width:0.80000001;stroke-linecap:butt;stroke-linejoin:miter;stroke-miterlimit:4;stroke-dasharray:none;stroke-opacity:1"
                     id="path119"
                     inkscape:connector-curvature="0" /></g><g
                   id="g121"
                   transform="translate(0,363)"><path
                     d="m 312.309,-76.875 -81.922,-20.48"
                     style="fill:none;stroke:#000000;stroke-width:0.80000001;stroke-linecap:butt;stroke-linejoin:miter;stroke-miterlimit:4;stroke-dasharray:none;stroke-opacity:1"
                     id="path123"
                     inkscape:connector-curvature="0" /></g><g
                   id="g125"
                   transform="translate(0,363)"><path
                     d="m 238.148,-95.418 2.329,3.883 -10.09,-5.82 11.64,-0.391 z"
                     style="fill:#000000;fill-opacity:1;fill-rule:evenodd;stroke:#000000;stroke-width:0.80000001;stroke-linecap:butt;stroke-linejoin:miter;stroke-miterlimit:4;stroke-dasharray:none;stroke-opacity:1"
                     id="path127"
                     inkscape:connector-curvature="0" /></g><path
                   d="m 222.438,88.047 c 1.304,1.418 2.035,2.035 2.917,2.801 0,0 1.5,1.304 2.383,2.191 2.34,2.266 2.879,3.453 2.879,3.57 0,0.231 -0.23,0.231 -0.269,0.231 -0.192,0 -0.231,-0.039 -0.383,-0.27 -0.731,-1.191 -1.231,-1.574 -1.805,-1.574 -0.613,0 -0.883,0.383 -1.269,0.805 -0.457,0.539 -0.883,1.039 -1.688,1.039 -1.844,0 -2.957,-2.266 -2.957,-2.805 0,-0.113 0.078,-0.269 0.27,-0.269 0.23,0 0.269,0.117 0.343,0.269 0.461,1.153 1.883,1.153 2.075,1.153 0.5,0 0.961,-0.153 1.535,-0.344 1,-0.387 1.269,-0.387 1.883,-0.387 -0.883,-1.035 -2.918,-2.801 -3.379,-3.187 l -2.227,-2.075 c -1.652,-1.648 -2.535,-3.031 -2.535,-3.222 0,-0.231 0.269,-0.231 0.309,-0.231 0.191,0 0.23,0.039 0.382,0.305 0.575,0.883 1.305,1.539 2.114,1.539 0.535,0 0.804,-0.231 1.418,-0.922 0.386,-0.539 0.847,-0.922 1.539,-0.922 2.457,0 3.875,3.11 3.875,3.762 0,0.117 -0.114,0.269 -0.305,0.269 -0.231,0 -0.27,-0.152 -0.348,-0.347 -0.574,-1.574 -2.148,-2.035 -2.957,-2.035 -0.461,0 -0.922,0.156 -1.418,0.308 -0.847,0.309 -1.23,0.422 -1.73,0.422 -0.039,0 -0.422,0 -0.652,-0.074 z"
                   style="fill:#000000;fill-opacity:1;fill-rule:nonzero;stroke:none"
                   id="path129"
                   inkscape:connector-curvature="0" /><path
                   d="m 169.371,94.418 c 0.152,0.426 0.191,0.77 0.191,1.422 0,1.574 -0.96,2.613 -2.804,2.613 -1.918,0 -3.188,-1.269 -3.801,-2.152 -0.117,1.422 -1.152,2.152 -2.266,2.152 -1.113,0 -1.574,-0.961 -1.804,-1.383 -0.422,-0.847 -0.731,-2.304 -0.731,-2.382 0,-0.27 0.231,-0.27 0.27,-0.27 0.269,0 0.269,0.039 0.422,0.578 0.422,1.727 0.922,2.918 1.804,2.918 0.383,0 0.731,-0.191 0.731,-1.113 0,-0.539 -0.078,-0.809 -0.383,-2.074 l -1.422,-5.645 c -0.078,-0.383 -0.23,-0.961 -0.23,-1.074 0,-0.422 0.343,-0.653 0.73,-0.653 0.305,0 0.727,0.192 0.922,0.692 0,0.035 0.305,1.187 0.457,1.805 l 0.539,2.187 c 0.117,0.574 0.27,1.113 0.422,1.652 0.039,0.153 0.23,0.957 0.27,1.114 0.039,0.23 0.804,1.574 1.652,2.265 0.535,0.383 1.305,0.844 2.34,0.844 1.078,0 1.343,-0.844 1.343,-1.726 0,-0.118 0,-0.54 -0.265,-1.54 l -2.766,-11.25 c -0.078,-0.308 -0.078,-0.343 -0.078,-0.421 0,-0.348 0.27,-0.653 0.652,-0.653 0.77,0 0.961,0.731 1.039,0.996 z"
                   style="fill:#000000;fill-opacity:1;fill-rule:nonzero;stroke:none"
                   id="path131"
                   inkscape:connector-curvature="0" /><path
                   d="m 165.07,217.043 c 0,0 0,0.269 -0.308,0.269 -0.578,0 -2.344,-0.191 -2.996,-0.269 -0.192,0 -0.461,-0.039 -0.461,-0.461 0,-0.305 0.23,-0.305 0.578,-0.305 1.187,0 1.226,-0.156 1.226,-0.425 l -0.074,-0.497 -3.535,-14.093 c -0.113,-0.348 -0.113,-0.383 -0.113,-0.539 0,-0.575 0.496,-0.692 0.726,-0.692 0.387,0 0.77,0.309 0.887,0.653 l 0.457,1.843 0.539,2.192 c 0.152,0.574 0.309,1.113 0.422,1.648 0.039,0.156 0.27,0.961 0.27,1.113 0.078,0.231 0.843,1.575 1.691,2.266 0.535,0.387 1.266,0.848 2.34,0.848 1.039,0 1.304,-0.848 1.304,-1.731 0,-1.304 -0.918,-3.992 -1.496,-5.488 -0.191,-0.539 -0.343,-0.848 -0.343,-1.348 0,-1.148 0.882,-1.996 2.035,-1.996 2.301,0 3.187,3.574 3.187,3.766 0,0.265 -0.195,0.265 -0.269,0.265 -0.27,0 -0.27,-0.074 -0.387,-0.457 -0.344,-1.308 -1.148,-3.035 -2.496,-3.035 -0.422,0 -0.574,0.231 -0.574,0.805 0,0.617 0.191,1.191 0.422,1.73 0.382,1.075 1.5,3.993 1.5,5.415 0,1.574 -0.961,2.609 -2.805,2.609 -1.535,0 -2.727,-0.766 -3.649,-1.879 z"
                   style="fill:#000000;fill-opacity:1;fill-rule:nonzero;stroke:none"
                   id="path133"
                   inkscape:connector-curvature="0" /><path
                   d="m 271.898,305.461 c 0,0.113 -0.078,0.23 -0.23,0.23 -0.27,0 -1.27,-0.961 -1.652,-1.691 -0.539,1.344 -1.496,1.73 -2.305,1.73 -2.879,0 -5.875,-3.609 -5.875,-7.183 0,-2.379 1.422,-3.914 3.226,-3.914 1.036,0 1.997,0.574 2.879,1.457 -0.23,-0.844 -1.035,-4.149 -1.113,-4.379 -0.191,-0.688 -0.383,-0.766 -1.766,-0.805 -0.308,0 -0.539,0 -0.539,-0.5 0,0 0,-0.269 0.309,-0.269 0.766,0 1.652,0.078 2.457,0.078 0.805,0 1.691,-0.078 2.535,-0.078 0.114,0 0.422,0 0.422,0.5 0,0.269 -0.23,0.269 -0.652,0.269 -1.153,0 -1.153,0.153 -1.153,0.383 0,0.191 0.039,0.348 0.079,0.539 z m -6.757,-10.293 c -1.5,0 -1.579,1.883 -1.579,2.305 0,1.191 0.692,3.839 1.118,4.875 0.765,1.808 2.035,2.843 3.031,2.843 1.613,0 1.957,-1.996 1.957,-2.152 0,-0.152 -1.344,-5.527 -1.418,-5.605 -0.387,-0.692 -1.766,-2.266 -3.109,-2.266 z"
                   style="fill:#000000;fill-opacity:1;fill-rule:nonzero;stroke:none"
                   id="path135"
                   inkscape:connector-curvature="0" /><path
                   d="m 279.141,297.68 c -0.422,-0.118 -0.727,-0.461 -0.727,-0.805 0,-0.426 0.344,-0.578 0.574,-0.578 0.192,0 0.844,0.117 0.844,1 0,1.113 -1.227,1.496 -2.301,1.496 -2.652,0 -3.152,-1.996 -3.152,-2.496 0,-0.652 0.387,-1.074 0.617,-1.266 0.422,-0.347 0.727,-0.422 1.918,-0.617 0.387,-0.074 1.461,-0.266 1.461,-1.113 0,-0.305 -0.191,-0.957 -0.883,-1.383 -0.691,-0.383 -1.539,-0.383 -1.73,-0.383 -0.692,0 -1.649,0.153 -2.074,0.731 0.578,0.078 0.96,0.5 0.96,0.961 0,0.421 -0.304,0.652 -0.652,0.652 -0.5,0 -0.996,-0.422 -0.996,-1.152 0,-1.039 1.074,-1.653 2.723,-1.653 3.187,0 3.765,2.153 3.765,2.805 0,1.574 -1.73,1.879 -2.383,1.996 -0.152,0.039 -0.574,0.113 -0.691,0.152 -0.613,0.118 -0.922,0.461 -0.922,0.848 0,0.383 0.309,0.844 0.692,1.113 0.461,0.266 1.039,0.305 1.347,0.305 0.344,0 1.227,-0.039 1.61,-0.613 z"
                   style="fill:#000000;fill-opacity:1;fill-rule:nonzero;stroke:none"
                   id="path137"
                   inkscape:connector-curvature="0" /><g
                   id="g139"
                   transform="translate(0,363)"><path
                     d="m 250.613,-158.797 v -20.48"
                     style="fill:none;stroke:#000000;stroke-width:0.80000001;stroke-linecap:butt;stroke-linejoin:miter;stroke-miterlimit:4;stroke-dasharray:none;stroke-opacity:1"
                     id="path141"
                     inkscape:connector-curvature="0" /></g><g
                   id="g143"
                   transform="translate(0,363)"><path
                     d="m 250.613,-171.277 -3.203,3.199 3.203,-11.199 3.199,11.199 z"
                     style="fill:#000000;fill-opacity:1;fill-rule:evenodd;stroke:#000000;stroke-width:0.80000001;stroke-linecap:butt;stroke-linejoin:miter;stroke-miterlimit:4;stroke-dasharray:none;stroke-opacity:1"
                     id="path145"
                     inkscape:connector-curvature="0" /></g><path
                   d="m 250.254,163.242 0.156,0.75 h 0.235 c 0.562,0 0.968,0.11 1.218,0.328 0.258,0.219 0.43,0.539 0.516,0.969 l 1.875,8.828 c 0.039,0.219 0.062,0.383 0.062,0.5 0,0.477 -0.433,0.719 -1.296,0.719 h -0.219 l 0.156,0.75 h 4.609 c 1.301,0 2.305,-0.305 3.016,-0.906 0.719,-0.594 1.078,-1.45 1.078,-2.563 0,-1.367 -0.461,-2.437 -1.375,-3.219 -0.918,-0.773 -2.293,-1.156 -4.125,-1.156 h -1.344 l -0.64,-3.015 c -0.055,-0.25 -0.078,-0.418 -0.078,-0.5 0,-0.493 0.437,-0.735 1.312,-0.735 h 0.578 l -0.156,-0.75 z m 4.75,5.86 h 0.953 c 2.531,0 3.797,1.164 3.797,3.5 0,1.75 -0.875,2.625 -2.625,2.625 h -0.828 z"
                   style="fill:#000000;fill-opacity:1;fill-rule:nonzero;stroke:none"
                   id="path147"
                   inkscape:connector-curvature="0" /><path
                   d="M 279.438,9.281 V 1.344 h 1.671 c 1.407,0 2.438,0.316 3.094,0.953 0.656,0.633 0.985,1.641 0.985,3.015 0,1.376 -0.329,2.379 -0.985,3.016 -0.656,0.633 -1.687,0.953 -3.094,0.953 z m -1.376,1.125 h 2.844 c 1.969,0 3.414,-0.414 4.344,-1.234 0.926,-0.824 1.391,-2.11 1.391,-3.86 0,-1.761 -0.465,-3.054 -1.391,-3.874 -0.93,-0.825 -2.375,-1.235 -4.344,-1.235 h -2.844 z m 11.02,-2.547 h 1.266 V 0.203 h -1.266 z m 0,2.985 h 1.266 V 9.25 h -1.266 z m 8.883,-3.203 V 6.438 c -0.356,0.187 -0.727,0.32 -1.11,0.406 -0.386,0.094 -0.781,0.14 -1.187,0.14 -0.625,0 -1.094,-0.093 -1.406,-0.281 -0.313,-0.187 -0.469,-0.476 -0.469,-0.859 0,-0.293 0.109,-0.524 0.328,-0.688 0.227,-0.168 0.68,-0.324 1.359,-0.468 l 0.422,-0.11 c 0.895,-0.187 1.532,-0.461 1.907,-0.812 0.375,-0.344 0.562,-0.828 0.562,-1.454 0,-0.71 -0.281,-1.273 -0.844,-1.687 C 296.965,0.207 296.191,0 295.215,0 c -0.418,0 -0.852,0.043 -1.297,0.125 -0.438,0.082 -0.902,0.203 -1.391,0.359 v 1.297 c 0.457,-0.242 0.911,-0.422 1.36,-0.547 0.457,-0.117 0.906,-0.172 1.343,-0.172 0.594,0 1.047,0.098 1.36,0.297 0.32,0.207 0.484,0.493 0.484,0.86 0,0.343 -0.117,0.601 -0.344,0.781 -0.23,0.188 -0.734,0.363 -1.515,0.531 l -0.438,0.11 c -0.773,0.156 -1.336,0.406 -1.687,0.75 -0.344,0.343 -0.516,0.804 -0.516,1.39 0,0.727 0.254,1.285 0.766,1.672 0.508,0.395 1.234,0.594 2.172,0.594 0.468,0 0.906,-0.039 1.312,-0.109 0.414,-0.063 0.797,-0.165 1.141,-0.297 z m 3.871,2.39 V 7.859 h 2.594 V 6.875 h -2.594 V 2.719 c 0,-0.617 0.082,-1.016 0.25,-1.203 0.176,-0.18 0.523,-0.266 1.047,-0.266 h 1.297 V 0.203 h -1.297 c -0.969,0 -1.641,0.18 -2.016,0.547 -0.367,0.363 -0.547,1.02 -0.547,1.969 v 4.156 h -0.922 v 0.984 h 0.922 v 2.172 z m 7.887,-5.984 c -1.012,0 -1.715,-0.117 -2.11,-0.344 -0.398,-0.23 -0.593,-0.625 -0.593,-1.187 0,-0.45 0.144,-0.805 0.437,-1.063 0.301,-0.262 0.703,-0.391 1.203,-0.391 0.695,0 1.254,0.243 1.672,0.735 0.426,0.5 0.641,1.156 0.641,1.969 v 0.281 z m 2.515,0.531 V 0.203 h -1.265 V 1.359 C 310.691,0.898 310.332,0.555 309.895,0.328 309.465,0.109 308.945,0 308.332,0 c -0.781,0 -1.406,0.219 -1.875,0.656 -0.461,0.446 -0.687,1.039 -0.687,1.782 0,0.851 0.285,1.5 0.859,1.937 0.582,0.437 1.441,0.656 2.578,0.656 h 1.766 v 0.125 c 0,0.582 -0.196,1.032 -0.578,1.344 -0.375,0.32 -0.907,0.484 -1.594,0.484 -0.438,0 -0.867,-0.058 -1.281,-0.172 -0.418,-0.105 -0.813,-0.261 -1.188,-0.468 v 1.172 c 0.457,0.175 0.898,0.304 1.328,0.39 0.438,0.094 0.86,0.141 1.266,0.141 1.113,0 1.941,-0.289 2.484,-0.859 0.551,-0.575 0.828,-1.446 0.828,-2.61 z m 9.207,0.25 V 0.203 h -1.265 v 4.578 c 0,0.727 -0.141,1.27 -0.422,1.625 -0.281,0.364 -0.703,0.547 -1.266,0.547 -0.68,0 -1.215,-0.219 -1.609,-0.656 -0.399,-0.43 -0.594,-1.016 -0.594,-1.766 V 0.203 h -1.266 v 7.656 h 1.266 V 6.672 c 0.301,0.457 0.656,0.801 1.063,1.031 0.414,0.227 0.89,0.344 1.421,0.344 0.875,0 1.536,-0.277 1.985,-0.828 0.457,-0.543 0.687,-1.34 0.687,-2.391 z m 8.282,2.734 V 6.391 c -0.356,0.195 -0.715,0.343 -1.079,0.437 -0.355,0.102 -0.714,0.156 -1.078,0.156 -0.812,0 -1.449,-0.261 -1.906,-0.781 -0.449,-0.523 -0.672,-1.246 -0.672,-2.172 0,-0.937 0.223,-1.668 0.672,-2.187 0.457,-0.512 1.094,-0.766 1.906,-0.766 0.364,0 0.723,0.047 1.078,0.141 0.364,0.093 0.723,0.238 1.079,0.437 V 0.5 C 329.371,0.332 329.008,0.207 328.633,0.125 328.258,0.043 327.859,0 327.445,0 c -1.156,0 -2.078,0.359 -2.765,1.078 -0.68,0.727 -1.016,1.711 -1.016,2.953 0,1.239 0.344,2.219 1.031,2.938 0.688,0.719 1.629,1.078 2.828,1.078 0.383,0 0.758,-0.043 1.125,-0.125 0.375,-0.074 0.735,-0.195 1.079,-0.36 z m 8.976,-3.218 v -0.61 h -5.797 c 0.063,-0.867 0.321,-1.527 0.782,-1.984 0.468,-0.449 1.117,-0.672 1.953,-0.672 0.488,0 0.957,0.055 1.406,0.172 0.457,0.113 0.91,0.289 1.359,0.531 V 0.594 C 337.945,0.406 337.477,0.258 337,0.156 336.531,0.055 336.055,0 335.578,0 c -1.23,0 -2.203,0.352 -2.922,1.062 -0.711,0.719 -1.062,1.68 -1.062,2.891 0,1.258 0.336,2.254 1.015,2.985 0.676,0.738 1.594,1.109 2.75,1.109 1.032,0 1.844,-0.336 2.438,-1 0.601,-0.656 0.906,-1.559 0.906,-2.703 z m -1.265,0.375 c -0.012,0.687 -0.204,1.234 -0.579,1.64 -0.375,0.414 -0.871,0.625 -1.484,0.625 -0.711,0 -1.277,-0.203 -1.703,-0.609 -0.418,-0.398 -0.656,-0.953 -0.719,-1.672 z"
                   style="fill:#000000;fill-opacity:1;fill-rule:nonzero;stroke:none"
                   id="path149"
                   inkscape:connector-curvature="0" /><path
                   d="m 0.738,241.586 v 6.453 h 1.157 v -5.078 h 3.031 v 4.859 h 1.156 v -4.859 h 3.703 v 5.203 h 1.156 v -6.578 z m -0.437,9.051 v 1.265 h 10.64 v -1.265 z m 6.5,10.554 H 7.41 v -5.796 c 0.867,0.062 1.528,0.32 1.985,0.781 0.449,0.469 0.671,1.117 0.671,1.953 0,0.488 -0.054,0.957 -0.171,1.406 -0.114,0.457 -0.29,0.91 -0.532,1.36 h 1.188 c 0.187,-0.461 0.336,-0.93 0.437,-1.407 0.102,-0.468 0.157,-0.945 0.157,-1.422 0,-1.23 -0.352,-2.203 -1.063,-2.921 -0.719,-0.711 -1.68,-1.063 -2.891,-1.063 -1.257,0 -2.253,0.336 -2.984,1.016 -0.738,0.675 -1.109,1.593 -1.109,2.75 0,1.031 0.336,1.843 1,2.437 0.656,0.602 1.558,0.906 2.703,0.906 z m -0.375,-1.265 c -0.688,-0.012 -1.235,-0.203 -1.641,-0.578 -0.414,-0.375 -0.625,-0.871 -0.625,-1.485 0,-0.711 0.203,-1.277 0.61,-1.703 0.398,-0.418 0.953,-0.656 1.671,-0.719 z m -3.141,2.672 v 1.328 l 6.422,2.39 -6.422,2.391 v 1.344 l 7.656,-2.875 v -1.719 z m 3.813,12.898 c 0,-1.012 0.117,-1.715 0.343,-2.109 0.231,-0.399 0.625,-0.594 1.188,-0.594 0.449,0 0.805,0.145 1.062,0.437 0.262,0.301 0.391,0.704 0.391,1.204 0,0.695 -0.242,1.254 -0.734,1.671 -0.5,0.426 -1.157,0.641 -1.969,0.641 H 7.098 Z m -0.532,2.516 h 4.375 v -1.266 H 9.785 c 0.461,-0.281 0.805,-0.641 1.031,-1.078 0.219,-0.43 0.329,-0.949 0.329,-1.563 0,-0.781 -0.219,-1.406 -0.657,-1.875 -0.445,-0.46 -1.039,-0.687 -1.781,-0.687 -0.852,0 -1.5,0.285 -1.937,0.859 -0.438,0.582 -0.657,1.442 -0.657,2.578 v 1.766 H 5.988 c -0.582,0 -1.031,-0.195 -1.343,-0.578 -0.321,-0.375 -0.485,-0.906 -0.485,-1.594 0,-0.437 0.059,-0.867 0.172,-1.281 0.106,-0.418 0.262,-0.813 0.469,-1.188 H 3.629 c -0.176,0.457 -0.305,0.899 -0.391,1.329 -0.093,0.437 -0.14,0.859 -0.14,1.265 0,1.113 0.289,1.942 0.859,2.485 0.574,0.55 1.445,0.828 2.609,0.828 z m -5.453,4.082 h 2.172 v 2.594 H 4.27 v -2.594 h 4.156 c 0.617,0 1.015,0.082 1.203,0.25 0.18,0.176 0.266,0.523 0.266,1.047 v 1.297 h 1.046 v -1.297 c 0,-0.969 -0.179,-1.641 -0.546,-2.016 -0.364,-0.367 -1.02,-0.547 -1.969,-0.547 H 4.27 v -0.922 H 3.285 v 0.922 H 1.113 Z m 2.172,4.402 v 1.266 h 7.656 v -1.266 z m -2.984,0 v 1.266 h 1.594 v -1.266 z m 3.859,6.961 c 0,-0.668 0.266,-1.199 0.797,-1.594 0.523,-0.398 1.242,-0.593 2.156,-0.593 0.918,0 1.641,0.191 2.172,0.578 0.524,0.394 0.781,0.929 0.781,1.609 0,0.676 -0.257,1.207 -0.781,1.594 -0.531,0.394 -1.254,0.594 -2.172,0.594 -0.906,0 -1.625,-0.2 -2.156,-0.594 -0.531,-0.387 -0.797,-0.918 -0.797,-1.594 z m -1.062,0 c 0,1.094 0.359,1.953 1.078,2.578 0.711,0.625 1.687,0.938 2.937,0.938 1.262,0 2.25,-0.313 2.969,-0.938 0.711,-0.625 1.063,-1.484 1.063,-2.578 0,-1.094 -0.352,-1.953 -1.063,-2.578 -0.719,-0.625 -1.707,-0.938 -2.969,-0.938 -1.25,0 -2.226,0.313 -2.937,0.938 -0.719,0.625 -1.078,1.484 -1.078,2.578 z m 3.218,12.211 h 4.625 v -1.266 H 6.363 c -0.726,0 -1.269,-0.14 -1.625,-0.422 -0.363,-0.281 -0.547,-0.703 -0.547,-1.265 0,-0.68 0.219,-1.215 0.657,-1.61 0.429,-0.398 1.015,-0.593 1.765,-0.593 h 4.328 v -1.266 H 3.285 v 1.266 h 1.188 c -0.457,0.3 -0.801,0.656 -1.032,1.062 -0.226,0.414 -0.343,0.891 -0.343,1.422 0,0.875 0.277,1.535 0.828,1.984 0.543,0.458 1.34,0.688 2.39,0.688 z"
                   style="fill:#000000;fill-opacity:1;fill-rule:nonzero;stroke:none"
                   id="path151"
                   inkscape:connector-curvature="0" /><g
                   id="g153"
                   transform="translate(0,363)"><path
                     d="m 250.234,-341.723 v 20.481"
                     style="fill:none;stroke:#000000;stroke-width:0.80000001;stroke-linecap:butt;stroke-linejoin:miter;stroke-miterlimit:4;stroke-dasharray:none;stroke-opacity:1"
                     id="path155"
                     inkscape:connector-curvature="0" /></g><g
                   id="g157"
                   transform="translate(0,363)"><path
                     d="m 250.234,-329.242 3.204,-3.199 -3.204,11.199 -3.199,-11.199 z"
                     style="fill:#000000;fill-opacity:1;fill-rule:evenodd;stroke:#000000;stroke-width:0.80000001;stroke-linecap:butt;stroke-linejoin:miter;stroke-miterlimit:4;stroke-dasharray:none;stroke-opacity:1"
                     id="path159"
                     inkscape:connector-curvature="0" /></g><path
                   d="m 265.066,49.695 c 0.204,0.754 0.524,1.301 1.996,1.36 0.09,0 0.321,0.031 0.321,0.379 0,0 0,0.199 -0.231,0.199 -0.609,0 -1.273,-0.055 -1.882,-0.055 -0.637,0 -1.332,0.055 -1.938,0.055 -0.117,0 -0.32,0 -0.32,-0.375 0,-0.203 0.176,-0.203 0.32,-0.203 1.07,-0.028 1.273,-0.407 1.273,-0.809 0,-0.058 -0.058,-0.348 -0.058,-0.379 l -1.68,-6.597 c -0.605,-2.489 -2.75,-4.079 -4.601,-4.079 -1.243,0 -2.227,0.809 -2.227,2.403 0,0.027 0,0.605 0.203,1.418 l 1.766,7.203 c 0.172,0.668 0.199,0.84 1.562,0.84 0.492,0 0.637,0 0.637,0.379 0,0.199 -0.203,0.199 -0.262,0.199 -0.519,0 -1.851,-0.055 -2.375,-0.055 -0.519,0 -1.851,0.055 -2.371,0.055 -0.144,0 -0.347,0 -0.347,-0.375 0,-0.203 0.144,-0.203 0.519,-0.203 0.031,0 0.379,0 0.695,-0.028 0.321,-0.058 0.493,-0.058 0.493,-0.32 0,-0.086 -0.204,-0.867 -0.317,-1.301 l -0.406,-1.621 c -0.176,-0.723 -1.043,-4.195 -1.129,-4.574 -0.117,-0.492 -0.117,-0.781 -0.117,-1.07 0,-2.227 1.68,-3.532 3.617,-3.532 2.316,0 4.602,2.086 5.211,4.516 z"
                   style="fill:#000000;fill-opacity:1;fill-rule:nonzero;stroke:none"
                   id="path161"
                   inkscape:connector-curvature="0" /></g></g></g></g></g></g></g></svg>